HIERARCHY
ROOT root
{
	OFFSET	0	13.1	24.9
	CHANNELS 6  Xposition Yposition Zposition Xrotation Yrotation Zrotation
	JOINT spine_1
	{
		OFFSET	0	9.99999	0
		CHANNELS 3  Xrotation Yrotation Zrotation
		JOINT spine_2
		{
			OFFSET	0	112	-10
			CHANNELS 3  Xrotation Yrotation Zrotation
			JOINT spine_3
			{
				OFFSET	0	206.5	19.3
				CHANNELS 3  Xrotation Yrotation Zrotation
				JOINT spine_4
				{
					OFFSET	0	110.4	14.6
					CHANNELS 3  Xrotation Yrotation Zrotation
					JOINT neck_1
					{
						OFFSET	0	71.8	-50.3
						CHANNELS 3  Xrotation Yrotation Zrotation
						JOINT neck_2
						{
							OFFSET	0	86.2	-25.8
							CHANNELS 3  Xrotation Yrotation Zrotation
							JOINT head_ee
							{
								OFFSET	0	179.8	-8.7
								CHANNELS 3  Xrotation Yrotation Zrotation
								End Site
								{
									OFFSET	1	0	0
								}
							}
						}
					}
					JOINT left_clavicle
					{
						OFFSET	-43.2	22.4	-70.8
						CHANNELS 3  Xrotation Yrotation Zrotation
						JOINT left_shoulder
						{
							OFFSET	-93.9	-5.79999	48.7
							CHANNELS 3  Xrotation Yrotation Zrotation
							JOINT left_elbow
							{
								OFFSET	-291.4	-30.8	15.2
								CHANNELS 3  Xrotation Yrotation Zrotation
								JOINT left_lowarm_twist
								{
									OFFSET	-110.7	-3.89999	13.6
									CHANNELS 3  Xrotation Yrotation Zrotation
									JOINT left_hand
									{
										OFFSET	-110.7	-3.89999	13.6
										CHANNELS 3  Xrotation Yrotation Zrotation
										JOINT left_ee
										{
											OFFSET	-80.8	-5.10001	12.1
											CHANNELS 3  Xrotation Yrotation Zrotation
											End Site
											{
												OFFSET	1	0	0
											}
										}
									}
								}
							}
						}
					}
					JOINT right_clavicle
					{
						OFFSET	43.2	22.4	-70.8
						CHANNELS 3  Xrotation Yrotation Zrotation
						JOINT right_shoulder
						{
							OFFSET	93.9	-5.79999	48.7
							CHANNELS 3  Xrotation Yrotation Zrotation
							JOINT right_elbow
							{
								OFFSET	291.4	-30.8	15.2
								CHANNELS 3  Xrotation Yrotation Zrotation
								JOINT right_lowarm_twist
								{
									OFFSET	110.7	-3.89999	13.6
									CHANNELS 3  Xrotation Yrotation Zrotation
									JOINT right_hand
									{
										OFFSET	110.7	-3.89999	13.6
										CHANNELS 3  Xrotation Yrotation Zrotation
										JOINT right_ee
										{
											OFFSET	80.8	-5.10001	12.1
											CHANNELS 3  Xrotation Yrotation Zrotation
											End Site
											{
												OFFSET	1	0	0
											}
										}
									}
								}
							}
						}
					}
				}
			}
		}
	}
	JOINT left_hip
	{
		OFFSET	-82.8	-127.5	0.300001
		CHANNELS 3  Xrotation Yrotation Zrotation
		JOINT left_knee
		{
			OFFSET	-28.2	-396.7	2.2
			CHANNELS 3  Xrotation Yrotation Zrotation
			JOINT left_ankle
			{
				OFFSET	-11.7	-411.3	35.4
				CHANNELS 3  Xrotation Yrotation Zrotation
				JOINT left_toes
				{
					OFFSET	0	-60	-88.6
					CHANNELS 3  Xrotation Yrotation Zrotation
					JOINT left_foot_ee
					{
						OFFSET	-22.5	-16.5	-42.2
						CHANNELS 3  Xrotation Yrotation Zrotation
						End Site
						{
							OFFSET	1	0	0
						}
					}
				}
			}
		}
	}
	JOINT right_hip
	{
		OFFSET	82.8	-127.5	0.300001
		CHANNELS 3  Xrotation Yrotation Zrotation
		JOINT right_knee
		{
			OFFSET	28.2	-396.7	2.2
			CHANNELS 3  Xrotation Yrotation Zrotation
			JOINT right_ankle
			{
				OFFSET	11.7	-411.3	35.4
				CHANNELS 3  Xrotation Yrotation Zrotation
				JOINT right_toes
				{
					OFFSET	0	-60	-88.6
					CHANNELS 3  Xrotation Yrotation Zrotation
					JOINT right_foot_ee
					{
						OFFSET	22.5	-16.5	-42.2
						CHANNELS 3  Xrotation Yrotation Zrotation
						End Site
						{
							OFFSET	1	0	0
						}
					}
				}
			}
		}
	}
}
MOTION
Frames: 11
Frame Time: 0.02
2869.6649042 703.925 -1623.75025225 12.9307996204 54.7236426889 -6.5303505738 -1.17481 -0.094663 -0.607039 -1.1746 -0.0558445 -0.611832 -1.17383 0.0864765 -0.608259 -1.17435 -0.0106701 -0.614283 -22.7973 6.96919 12.5985 -22.4421 7.69061 14.858 -0.0 0.0 -0.0 4.63992 16.2801 9.22745 -6.97055 -39.3441 54.6574 0.828964 -22.3251 0.163579 -70.4131 -6.59876 5.30578 -1.49834 14.8063 -3.2403 -0.0 0.0 -0.0 10.1081 20.5492 -19.6045 -26.0819 15.9404 -59.9991 1.19271 30.5748 -0.326017 -29.5637 1.91568 -3.21495 -1.4695 5.58197 12.3707 0.0 0.0 0.0 -10.2073 25.3216 -0.158081 6.13404 -0.300743 -0.892519 21.3709 -4.17026 -2.95495 -9.51419 0.0 0.0 -0.0 0.0 -0.0 1.82983 25.6437 -6.2699 -27.7486 -0.123695 -4.21511 25.3637 -28.1248 3.6238 -12.1796 0.0 0.0 0.0 0.0 0.0 
2870.16167354 703.925 -1620.51509841 13.1252431962 55.3116732776 -6.76766791214 -1.17481 -0.094663 -0.607039 -1.1746 -0.0558445 -0.611832 -1.17383 0.0864765 -0.608259 -1.17435 -0.0106701 -0.614283 -22.7973 6.96919 12.5985 -22.4421 7.69061 14.858 -0.0 0.0 -0.0 4.63992 16.2801 9.22745 -6.97055 -39.3441 54.6574 0.828964 -22.3251 0.163579 -70.4131 -6.59876 5.30578 -1.49834 14.8063 -3.2403 -0.0 0.0 -0.0 10.1081 20.5492 -19.6045 -26.0819 15.9404 -59.9991 1.19271 30.5748 -0.326017 -29.5637 1.91568 -3.21495 -1.4695 5.58197 12.3707 0.0 0.0 0.0 -10.2073 25.3216 -0.158081 6.13404 -0.300743 -0.892519 21.3709 -4.17026 -2.95495 -9.51419 0.0 0.0 -0.0 0.0 -0.0 1.82983 25.6437 -6.2699 -27.7486 -0.123695 -4.21511 25.3637 -28.1248 3.6238 -12.1796 0.0 0.0 0.0 0.0 0.0 
2857.36164987 700.798 -1616.49050703 12.4032782489 54.9205274918 -5.54775374819 -1.29707 -0.103426 -0.838874 -1.29668 -0.0498385 -0.843755 -1.29562 0.147476 -0.832261 -1.29659 0.0141904 -0.845106 -19.0562 8.35574 11.6655 -18.7902 9.99397 14.1408 -0.0 0.0 -0.0 5.20933 19.3715 10.0581 -4.46405 -39.6982 52.5902 0.952279 -25.2543 0.213338 -72.985 -6.92736 5.31905 -3.26584 22.5982 -9.93472 -0.0 0.0 -0.0 8.82265 18.2875 -16.9039 -21.4025 14.3141 -63.2526 0.432817 12.1015 -0.0458787 -34.0172 2.33852 -3.59871 -2.45021 9.62551 21.0913 0.0 0.0 0.0 -10.5922 26.5152 -0.699085 5.83479 -0.28386 -0.849743 24.6479 -3.92096 -3.34677 -14.6574 0.0 0.0 -0.0 0.0 -0.0 9.00516 25.9044 -10.5011 -22.2402 -0.262304 -3.38146 10.0812 -27.4863 1.52056 -8.75623 0.0 0.0 0.0 0.0 0.0 
2843.09612679 701.301 -1620.10556424 12.47501648 53.6696255851 -4.94064420299 -1.47594 -0.27256 -1.09889 -1.47529 -0.202087 -1.114 -1.47067 0.0655888 -1.13028 -1.47243 -0.113729 -1.12645 -17.3007 9.9078 11.9788 -17.0525 12.4139 14.7994 -0.0 0.0 -0.0 5.02734 22.1562 9.69824 -2.48023 -41.1303 51.3959 1.09675 -28.5144 0.278694 -75.2971 -7.22282 5.3183 -4.60961 26.2298 -15.5124 -0.0 0.0 -0.0 7.98017 17.4899 -15.1049 -19.087 13.1157 -64.7579 0.205286 5.80675 -0.0104114 -36.8823 2.62586 -3.82787 -3.57244 5.05418 27.2337 0.0 0.0 0.0 -9.80547 29.3157 -2.13003 4.12335 -0.191628 -0.603494 27.934 -1.78245 -3.7003 -15.5548 0.0 0.0 -0.0 0.0 -0.0 12.4765 29.1703 -13.3472 -23.6605 -0.234247 -3.59761 3.30358 -26.5726 0.504932 -6.16371 0.0 0.0 0.0 0.0 0.0 
2833.41605269 694.986 -1610.29992241 12.8274571901 53.6186644401 -5.18472151859 -1.714 -0.29764 -1.3993 -1.71293 -0.208004 -1.4154 -1.70664 0.136604 -1.42407 -1.70946 -0.0899914 -1.42777 -18.0071 9.73096 15.3853 -17.4517 10.3853 17.9502 -0.0 0.0 -0.0 5.43095 23.3917 10.2216 -0.855199 -41.6309 50.0884 1.3118 -33.0153 0.388777 -76.328 -7.35444 5.3141 -4.57223 26.0726 -15.4027 -0.0 0.0 -0.0 7.09955 16.7281 -13.2368 -18.9852 12.2341 -64.5426 0.246052 6.94948 -0.0149403 -37.7311 2.71316 -3.89299 -4.57685 -1.05983 31.6798 0.0 0.0 0.0 -11.0622 31.7413 -1.83338 5.59379 -0.270427 -0.815233 30.8415 -0.923404 -4.00677 -16.4182 0.0 0.0 -0.0 0.0 -0.0 18.716 30.7097 -15.7575 -21.9503 -0.267371 -3.33727 3.00219 -24.8753 0.454951 -6.99725 0.0 0.0 0.0 0.0 0.0 
2833.36270106 694.986 -1610.61153081 12.8118244564 53.5680030393 -5.16529774705 -1.714 -0.29764 -1.3993 -1.71293 -0.208004 -1.4154 -1.70664 0.136604 -1.42407 -1.70946 -0.0899914 -1.42777 -18.0071 9.73096 15.3853 -17.4517 10.3853 17.9502 -0.0 0.0 -0.0 5.43095 23.3917 10.2216 -0.855199 -41.6309 50.0884 1.3118 -33.0153 0.388777 -76.328 -7.35444 5.3141 -4.57223 26.0726 -15.4027 -0.0 0.0 -0.0 7.09955 16.7281 -13.2368 -18.9852 12.2341 -64.5426 0.246052 6.94948 -0.0149403 -37.7311 2.71316 -3.89299 -4.57685 -1.05983 31.6798 0.0 0.0 0.0 -11.0622 31.7413 -1.83338 5.59379 -0.270427 -0.815233 30.8415 -0.923404 -4.00677 -16.4182 0.0 0.0 -0.0 0.0 -0.0 18.716 30.7097 -15.7575 -21.9503 -0.267371 -3.33727 3.00219 -24.8753 0.454951 -6.99725 0.0 0.0 0.0 0.0 0.0 
2830.31446923 696.046 -1602.08523412 13.4701355707 53.7380144766 -5.95179828632 -1.82952 -0.153519 -1.5236 -1.82823 -0.0562692 -1.53028 -1.8255 0.314582 -1.49866 -1.82863 0.0739776 -1.52953 -17.7186 9.03104 16.2668 -17.0444 8.45698 18.4735 -0.0 0.0 -0.0 5.97881 21.639 11.106 -0.790746 -42.3874 49.3333 1.36352 -34.0351 0.417344 -76.7614 -7.40974 5.31162 -4.32071 26.609 -13.5872 -0.0 0.0 -0.0 6.96217 17.2796 -12.9008 -18.535 10.3037 -64.5811 0.237287 6.70424 -0.0138985 -36.6529 2.60244 -3.81006 -5.0045 -4.24842 33.1002 0.0 0.0 0.0 -12.1837 32.0349 -0.494917 6.50084 -0.321743 -0.944831 32.0694 -0.328857 -4.12952 -18.1656 0.0 0.0 -0.0 0.0 -0.0 22.9882 30.7704 -17.3933 -17.5967 -0.316504 -2.67123 9.43285 -22.7179 1.3894 -10.9971 0.0 0.0 0.0 0.0 0.0 
2825.25375866 693.794 -1597.25140008 14.1653061969 53.6547718355 -6.52758534092 -1.97239 -0.0404618 -1.6282 -1.97092 0.0632127 -1.62747 -1.97143 0.458019 -1.56299 -1.97478 0.20546 -1.61569 -17.4072 8.60781 15.8251 -16.7605 7.78726 17.8849 -0.0 0.0 -0.0 6.39827 20.3519 11.8129 -0.604814 -42.6369 47.7336 1.44847 -35.6585 0.465892 -77.0754 -7.44978 5.30956 -3.95238 26.8515 -11.3347 -0.0 0.0 -0.0 6.70012 17.3261 -12.3292 -18.4628 9.70149 -64.5541 0.250821 7.08284 -0.0155229 -36.0433 2.54053 -3.76225 -5.29685 -5.54612 34.5862 0.0 0.0 0.0 -13.0099 32.2092 0.0926465 6.44256 -0.318383 -0.936528 32.0276 0.232607 -4.12104 -18.8995 0.0 0.0 -0.0 0.0 -0.0 26.6749 31.2684 -19.2045 -15.3539 -0.322034 -2.32719 13.053 -20.5449 1.88209 -13.5325 0.0 0.0 0.0 0.0 0.0 
2825.10712127 693.794 -1597.97117914 14.1264546807 53.5411127953 -6.47931496645 -1.97239 -0.0404618 -1.6282 -1.97092 0.0632127 -1.62747 -1.97143 0.458019 -1.56299 -1.97478 0.20546 -1.61569 -17.4072 8.60781 15.8251 -16.7605 7.78726 17.8849 -0.0 0.0 -0.0 6.39827 20.3519 11.8129 -0.604814 -42.6369 47.7336 1.44847 -35.6585 0.465892 -77.0754 -7.44978 5.30956 -3.95238 26.8515 -11.3347 -0.0 0.0 -0.0 6.70012 17.3261 -12.3292 -18.4628 9.70149 -64.5541 0.250821 7.08284 -0.0155229 -36.0433 2.54053 -3.76225 -5.29685 -5.54612 34.5862 0.0 0.0 0.0 -13.0099 32.2092 0.0926465 6.44256 -0.318383 -0.936528 32.0276 0.232607 -4.12104 -18.8995 0.0 0.0 -0.0 0.0 -0.0 26.6749 31.2684 -19.2045 -15.3539 -0.322034 -2.32719 13.053 -20.5449 1.88209 -13.5325 0.0 0.0 0.0 0.0 0.0 
2823.70930578 689.236 -1598.632132 13.4677083011 52.8586980647 -6.04250768686 -1.91171 0.0578928 -1.59632 -1.91031 0.15934 -1.58941 -1.91365 0.540478 -1.50318 -1.91668 0.296327 -1.56965 -16.9231 9.05528 15.6133 -16.3053 8.62115 17.7989 -0.0 0.0 -0.0 6.64996 19.2167 12.276 -1.16607 -41.8057 44.9281 1.59471 -38.3049 0.553885 -77.6431 -7.52214 5.30527 -4.0416 27.6145 -11.3506 -0.0 0.0 -0.0 6.46215 17.9542 -11.7674 -18.6835 8.95996 -65.6609 0.331626 9.3293 -0.0270588 -37.0023 2.63815 -3.83716 -5.50871 -7.53235 34.9167 0.0 0.0 0.0 -13.0422 31.3357 -0.211851 6.28242 -0.309197 -0.913695 34.4781 -0.663616 -4.37368 -19.4531 0.0 0.0 -0.0 0.0 -0.0 29.0695 31.9337 -19.3827 -11.8172 -0.303394 -1.78494 15.7307 -14.6524 2.2053 -15.8807 0.0 0.0 0.0 0.0 0.0 
2815.76618771 688.692 -1598.57116142 13.665675981 52.984798669 -5.82613094524 -1.92748 -0.0253167 -1.80326 -1.92568 0.0894618 -1.80122 -1.92696 0.524527 -1.7255 -1.93103 0.245481 -1.78666 -17.3764 8.49436 15.8446 -16.7242 7.54766 17.8601 -0.0 0.0 -0.0 7.1361 18.5752 13.0837 0.413351 -40.9149 45.1107 1.62206 -38.7796 0.570927 -78.186 -7.59128 5.30049 -4.06928 28.0794 -11.2065 -0.0 0.0 -0.0 6.33534 18.2938 -11.4668 -18.3294 8.57988 -65.6874 0.298584 8.41378 -0.0219628 -35.6737 2.50325 -3.73295 -5.76139 -9.56024 35.472 0.0 0.0 0.0 -13.4378 31.3376 -0.378814 5.85777 -0.285148 -0.853031 36.3653 0.094738 -4.5485 -19.6644 0.0 0.0 -0.0 0.0 -0.0 30.6582 32.2863 -21.0233 -11.0664 -0.295132 -1.67004 17.4378 -13.8013 2.42353 -15.955 0.0 0.0 0.0 0.0 0.0 
